<?xml version="1.0" encoding="UTF-8"?><svg id="_Слой_1" xmlns="http://www.w3.org/2000/svg" xmlns:xlink="http://www.w3.org/1999/xlink" viewBox="0 0 1920 1080"><defs><style>.cls-1{fill:url(#_Безымянный_градиент_51-9);}.cls-1,.cls-2,.cls-3,.cls-4,.cls-5,.cls-6,.cls-7,.cls-8,.cls-9,.cls-10,.cls-11,.cls-12,.cls-13,.cls-14,.cls-15,.cls-16,.cls-17,.cls-18,.cls-19,.cls-20,.cls-21,.cls-22,.cls-23,.cls-24,.cls-25,.cls-26,.cls-27,.cls-28{stroke-width:0px;}.cls-2{fill:url(#_Безымянный_градиент_4);}.cls-2,.cls-3,.cls-4,.cls-5,.cls-6,.cls-7,.cls-8,.cls-9,.cls-10,.cls-11{fill-rule:evenodd;}.cls-3{fill:url(#_Безымянный_градиент_51);}.cls-4{fill:#fff;}.cls-5{fill:url(#_Безымянный_градиент_51-5);}.cls-6{fill:url(#_Безымянный_градиент_51-8);}.cls-7{fill:url(#_Безымянный_градиент_51-2);}.cls-8{fill:url(#_Безымянный_градиент_51-6);}.cls-9{fill:url(#_Безымянный_градиент_51-4);}.cls-10{fill:url(#_Безымянный_градиент_51-3);}.cls-11{fill:url(#_Безымянный_градиент_51-7);}.cls-12{fill:url(#_Безымянный_градиент_51-26);}.cls-13{fill:url(#_Безымянный_градиент_51-25);}.cls-14{fill:url(#_Безымянный_градиент_51-24);}.cls-15{fill:url(#_Безымянный_градиент_51-23);}.cls-16{fill:url(#_Безымянный_градиент_51-22);}.cls-17{fill:url(#_Безымянный_градиент_51-20);}.cls-18{fill:url(#_Безымянный_градиент_51-21);}.cls-19{fill:url(#_Безымянный_градиент_51-16);}.cls-20{fill:url(#_Безымянный_градиент_51-11);}.cls-21{fill:url(#_Безымянный_градиент_51-10);}.cls-22{fill:url(#_Безымянный_градиент_51-18);}.cls-23{fill:url(#_Безымянный_градиент_51-13);}.cls-24{fill:url(#_Безымянный_градиент_51-19);}.cls-25{fill:url(#_Безымянный_градиент_51-12);}.cls-26{fill:url(#_Безымянный_градиент_51-17);}.cls-27{fill:url(#_Безымянный_градиент_51-14);}.cls-28{fill:url(#_Безымянный_градиент_51-15);}</style><linearGradient id="_Безымянный_градиент_51" x1="190.1" y1="417.03" x2="684.57" y2="417.03" gradientUnits="userSpaceOnUse"><stop offset=".4" stop-color="#2250a4"/><stop offset="1" stop-color="#d0349f"/></linearGradient><linearGradient id="_Безымянный_градиент_51-2" x1="190.1" y1="417.03" x2="684.57" y2="417.03" xlink:href="#_Безымянный_градиент_51"/><linearGradient id="_Безымянный_градиент_51-3" y1="417.03" x2="684.57" y2="417.03" xlink:href="#_Безымянный_градиент_51"/><linearGradient id="_Безымянный_градиент_51-4" x1="190.1" y1="532.94" x2="684.57" y2="532.94" xlink:href="#_Безымянный_градиент_51"/><linearGradient id="_Безымянный_градиент_51-5" x1="190.1" y1="532.94" x2="684.57" y2="532.94" xlink:href="#_Безымянный_градиент_51"/><linearGradient id="_Безымянный_градиент_51-6" x1="190.1" y1="644.25" x2="684.57" y2="644.25" xlink:href="#_Безымянный_градиент_51"/><linearGradient id="_Безымянный_градиент_51-7" x1="190.1" y1="644.25" x2="684.57" y2="644.25" xlink:href="#_Безымянный_градиент_51"/><linearGradient id="_Безымянный_градиент_51-8" x1="190.1" y1="644.25" y2="644.25" xlink:href="#_Безымянный_градиент_51"/><linearGradient id="_Безымянный_градиент_4" x1="653.29" y1="530.72" x2="817" y2="530.44" gradientUnits="userSpaceOnUse"><stop offset="0" stop-color="#d0349f"/><stop offset=".38" stop-color="#2250a4"/><stop offset=".5" stop-color="#2250a4"/><stop offset=".62" stop-color="#2250a4"/><stop offset="1" stop-color="#d0349f"/></linearGradient><linearGradient id="_Безымянный_градиент_51-9" x1="849.98" y1="446.27" x2="1734.39" y2="446.27" xlink:href="#_Безымянный_градиент_51"/><linearGradient id="_Безымянный_градиент_51-10" x1="849.98" y1="461.94" x2="1734.39" y2="461.94" xlink:href="#_Безымянный_градиент_51"/><linearGradient id="_Безымянный_градиент_51-11" x1="849.98" y1="461.94" x2="1734.39" y2="461.94" xlink:href="#_Безымянный_градиент_51"/><linearGradient id="_Безымянный_градиент_51-12" x1="849.98" y1="462.1" x2="1734.39" y2="462.1" xlink:href="#_Безымянный_градиент_51"/><linearGradient id="_Безымянный_градиент_51-13" x1="849.98" y1="461.94" x2="1734.39" y2="461.94" xlink:href="#_Безымянный_градиент_51"/><linearGradient id="_Безымянный_градиент_51-14" x1="849.98" y1="461.94" x2="1734.39" y2="461.94" xlink:href="#_Безымянный_градиент_51"/><linearGradient id="_Безымянный_градиент_51-15" x1="849.98" y1="461.94" x2="1734.39" y2="461.94" xlink:href="#_Безымянный_градиент_51"/><linearGradient id="_Безымянный_градиент_51-16" x1="849.98" y1="461.94" x2="1734.39" y2="461.94" xlink:href="#_Безымянный_градиент_51"/><linearGradient id="_Безымянный_градиент_51-17" x1="849.98" y1="461.94" x2="1734.39" y2="461.94" xlink:href="#_Безымянный_градиент_51"/><linearGradient id="_Безымянный_градиент_51-18" x1="849.98" y1="617.54" x2="1734.39" y2="617.54" xlink:href="#_Безымянный_градиент_51"/><linearGradient id="_Безымянный_градиент_51-19" x1="849.98" y1="633.21" x2="1734.39" y2="633.21" xlink:href="#_Безымянный_градиент_51"/><linearGradient id="_Безымянный_градиент_51-20" x1="849.98" y1="633.21" x2="1734.39" y2="633.21" xlink:href="#_Безымянный_градиент_51"/><linearGradient id="_Безымянный_градиент_51-21" x1="849.98" y1="643.71" x2="1734.39" y2="643.71" xlink:href="#_Безымянный_градиент_51"/><linearGradient id="_Безымянный_градиент_51-22" x1="849.98" y1="633.21" x2="1734.39" y2="633.21" xlink:href="#_Безымянный_градиент_51"/><linearGradient id="_Безымянный_градиент_51-23" x1="849.98" y1="633.21" x2="1734.39" y2="633.21" xlink:href="#_Безымянный_градиент_51"/><linearGradient id="_Безымянный_градиент_51-24" x1="849.98" y1="633.21" x2="1734.39" y2="633.21" xlink:href="#_Безымянный_градиент_51"/><linearGradient id="_Безымянный_градиент_51-25" x1="849.98" y1="633.21" x2="1734.39" y2="633.21" xlink:href="#_Безымянный_градиент_51"/><linearGradient id="_Безымянный_градиент_51-26" x1="849.98" y1="633.21" x2="1734.39" y2="633.21" xlink:href="#_Безымянный_градиент_51"/></defs><path class="cls-4" d="M251.56,388.24l-14.39,57.57h212.85l14.87-57.57h-213.33ZM704.13,388.24l-14.87,57.57h50.92l14.39-57.57h-50.44ZM538.52,388.24l-14.86,57.57h110.62l14.87-57.57h-110.64ZM204.22,615.47l-14.39,57.57h201.53l14.87-57.57h-202.01ZM479.86,615.47l-14.86,57.57h55.21l14.87-57.57h-55.22ZM590.05,615.47l-14.87,57.57h117.66l14.39-57.57h-117.18ZM301.2,504.16l-14.39,57.57h133.29l14.86-57.57h-133.75ZM508.6,504.16l-14.86,57.57h111.84l14.39-57.57h-111.38Z"/><polygon class="cls-4" points="816.75 388.24 748.37 672.78 735.38 672.78 803.77 388.24 816.75 388.24"/><polygon class="cls-3" points="464.89 388.24 251.56 388.24 237.16 445.81 450.02 445.81 464.89 388.24"/><polygon class="cls-7" points="649.16 388.24 634.29 445.81 523.66 445.81 538.52 388.24 649.16 388.24"/><polygon class="cls-10" points="754.57 388.24 740.18 445.81 689.26 445.81 704.13 388.24 754.57 388.24"/><polygon class="cls-9" points="434.95 504.16 420.09 561.73 286.81 561.73 301.2 504.16 434.95 504.16"/><polygon class="cls-5" points="619.97 504.16 605.58 561.73 493.74 561.73 508.6 504.16 619.97 504.16"/><polygon class="cls-8" points="406.23 615.47 391.35 673.04 189.82 673.04 204.22 615.47 406.23 615.47"/><polygon class="cls-11" points="479.86 615.47 535.08 615.47 520.21 673.04 465 673.04 479.86 615.47"/><polygon class="cls-6" points="707.23 615.47 692.84 673.04 575.18 673.04 590.05 615.47 707.23 615.47"/><g id="g76"><polygon class="cls-2" points="816.75 388.24 748.37 672.78 735.38 672.78 803.77 388.24 816.75 388.24"/></g><path class="cls-1" d="M944.96,389.22c16.51,0,30.14,5.46,40.91,16.38,10.76,10.92,16.14,24.48,16.14,40.67s-5.38,29.62-16.14,40.59c-10.76,10.97-24.4,16.46-40.91,16.46-9.93,0-19.07-2.32-27.43-6.97-8.36-4.65-14.89-10.94-19.59-18.89l18.65-10.81c2.61,4.81,6.45,8.6,11.52,11.36,5.07,2.77,10.68,4.15,16.85,4.15,8.88,0,16.35-2.32,22.41-6.97,6.06-4.65,10.03-10.94,11.91-18.89h-48.9v-20.22h48.9c-1.88-7.94-5.85-14.24-11.91-18.89-6.06-4.65-13.53-6.97-22.41-6.97-6.17,0-11.75,1.39-16.77,4.15-5.02,2.77-8.88,6.61-11.6,11.52l-18.65-10.81c4.7-7.94,11.26-14.24,19.67-18.89,8.41-4.65,17.53-6.97,27.35-6.97Z"/><path class="cls-21" d="M1078.03,422.76v19.43h-24.45v58.93h-20.22v-58.93h-24.76v-19.43h69.43Z"/><path class="cls-20" d="M1145.27,422.76h20.22v78.37h-20.22v-9.25c-6.06,7.63-14.58,11.44-25.55,11.44s-19.41-4-26.88-11.99c-7.47-7.99-11.21-17.79-11.21-29.39s3.74-21.39,11.21-29.39c7.47-7.99,16.43-11.99,26.88-11.99,10.97,0,19.49,3.82,25.55,11.44v-9.25ZM1107.97,477.85c4.08,4.13,9.25,6.19,15.52,6.19s11.47-2.06,15.59-6.19,6.19-9.43,6.19-15.91-2.06-11.78-6.19-15.91c-4.13-4.13-9.33-6.19-15.59-6.19s-11.44,2.06-15.52,6.19c-4.08,4.13-6.11,9.43-6.11,15.91s2.04,11.78,6.11,15.91Z"/><path class="cls-25" d="M1251.06,422.76v78.37h-20.22v-58.93h-21.63v26.17c0,24.24-11.03,35.16-33.07,32.76v-18.96c4.18,1.05,7.37.34,9.56-2.12,2.19-2.45,3.29-6.71,3.29-12.77v-44.51h62.07Z"/><path class="cls-23" d="M1336.16,491.33c-8.05,7.99-17.87,11.99-29.46,11.99s-21.39-4-29.39-11.99-11.99-17.79-11.99-29.39,4-21.39,11.99-29.39,17.79-11.99,29.39-11.99,21.42,4,29.46,11.99c8.04,7.99,12.07,17.79,12.07,29.39s-4.02,21.39-12.07,29.39ZM1291.57,477.46c4.02,4.08,9.06,6.11,15.12,6.11s11.13-2.04,15.2-6.11c4.08-4.07,6.11-9.25,6.11-15.52s-2.04-11.44-6.11-15.52c-4.07-4.08-9.14-6.11-15.2-6.11s-11.1,2.04-15.12,6.11c-4.02,4.08-6.03,9.25-6.03,15.52s2.01,11.44,6.03,15.52Z"/><path class="cls-27" d="M1413.9,422.76h20.22v78.37h-20.22v-29.78h-31.19v29.78h-20.22v-78.37h20.22v29.62h31.19v-29.62Z"/><path class="cls-28" d="M1504.02,422.76h20.22v78.37h-20.22v-29.78h-31.19v29.78h-20.22v-78.37h20.22v29.62h31.19v-29.62Z"/><path class="cls-19" d="M1578.16,447.83c8.88,0,16.04,2.43,21.47,7.29,5.43,4.86,8.15,11.31,8.15,19.36s-2.72,14.5-8.15,19.36c-5.43,4.86-12.59,7.29-21.47,7.29h-35.42v-78.37h20.22v25.08h15.2ZM1578.31,483.26c2.82,0,5.15-.81,6.97-2.43,1.83-1.62,2.74-3.73,2.74-6.35s-.92-4.75-2.74-6.43c-1.83-1.67-4.15-2.51-6.97-2.51h-15.36v17.71h15.36ZM1616.4,422.76h20.22v78.37h-20.22v-78.37Z"/><path class="cls-26" d="M1672.19,470.25c2.72,9.82,10.08,14.73,22.1,14.73,7.73,0,13.58-2.61,17.55-7.84l16.3,9.4c-7.73,11.18-19.12,16.77-34.17,16.77-12.96,0-23.35-3.92-31.19-11.75-7.84-7.84-11.75-17.71-11.75-29.62s3.86-21.65,11.6-29.54c7.73-7.89,17.66-11.83,29.78-11.83,11.49,0,20.97,3.97,28.45,11.91,7.47,7.94,11.21,17.76,11.21,29.47,0,2.61-.26,5.38-.78,8.31h-59.09ZM1671.88,454.57h39.97c-1.15-5.33-3.53-9.3-7.13-11.91-3.6-2.61-7.71-3.92-12.3-3.92-5.43,0-9.93,1.39-13.48,4.15-3.55,2.77-5.9,6.66-7.05,11.68Z"/><path class="cls-22" d="M937.65,672.39h-24.92l-39.18-51.41v51.41h-21.63v-109.71h21.63v48.43l37.62-48.43h24.92l-40.59,53.29,42.16,56.42Z"/><path class="cls-24" d="M1007.08,662.6c-8.05,7.99-17.87,11.99-29.46,11.99s-21.4-4-29.39-11.99-11.99-17.79-11.99-29.39,4-21.39,11.99-29.39,17.79-11.99,29.39-11.99,21.42,4,29.46,11.99c8.04,7.99,12.07,17.79,12.07,29.39s-4.02,21.39-12.07,29.39ZM962.49,648.73c4.02,4.08,9.06,6.11,15.12,6.11s11.13-2.04,15.2-6.11c4.08-4.07,6.11-9.25,6.11-15.52s-2.04-11.44-6.11-15.52c-4.07-4.08-9.14-6.11-15.2-6.11s-11.1,2.04-15.12,6.11c-4.02,4.08-6.03,9.25-6.03,15.52s2.01,11.44,6.03,15.52Z"/><path class="cls-17" d="M1084.82,594.03h20.22v78.37h-20.22v-29.78h-31.19v29.78h-20.22v-78.37h20.22v29.62h31.19v-29.62Z"/><path class="cls-18" d="M1192.5,653.43h13.17v39.97h-19.75v-21h-62.38v-78.37h20.22v59.4h28.53v-59.4h20.22v59.4Z"/><path class="cls-16" d="M1232.31,641.52c2.72,9.82,10.08,14.73,22.1,14.73,7.73,0,13.58-2.61,17.55-7.84l16.3,9.4c-7.73,11.18-19.12,16.77-34.17,16.77-12.96,0-23.35-3.92-31.19-11.75-7.84-7.84-11.75-17.71-11.75-29.62s3.86-21.65,11.6-29.54c7.73-7.89,17.66-11.83,29.78-11.83,11.49,0,20.97,3.97,28.45,11.91,7.47,7.94,11.21,17.76,11.21,29.47,0,2.61-.26,5.38-.78,8.31h-59.09ZM1231.99,625.84h39.97c-1.15-5.33-3.53-9.3-7.13-11.91-3.6-2.61-7.71-3.92-12.3-3.92-5.43,0-9.93,1.39-13.48,4.15-3.55,2.77-5.9,6.66-7.05,11.68Z"/><path class="cls-15" d="M1342.96,674.59c-11.81,0-21.66-3.97-29.54-11.91-7.89-7.94-11.83-17.76-11.83-29.46s3.94-21.52,11.83-29.47c7.89-7.94,17.73-11.91,29.54-11.91,7.63,0,14.58,1.83,20.84,5.49,6.27,3.66,11.02,8.57,14.26,14.73l-17.4,10.19c-1.57-3.24-3.95-5.8-7.13-7.68-3.19-1.88-6.77-2.82-10.74-2.82-6.06,0-11.08,2.01-15.05,6.03-3.97,4.02-5.96,9.17-5.96,15.44s1.98,11.26,5.96,15.28c3.97,4.02,8.98,6.03,15.05,6.03,4.08,0,7.7-.91,10.89-2.74,3.19-1.83,5.56-4.36,7.13-7.6l17.55,10.03c-3.45,6.17-8.31,11.1-14.58,14.81-6.27,3.71-13.22,5.56-20.84,5.56Z"/><path class="cls-14" d="M1425.09,674.59c-11.81,0-21.66-3.97-29.54-11.91-7.89-7.94-11.83-17.76-11.83-29.46s3.94-21.52,11.83-29.47c7.89-7.94,17.73-11.91,29.54-11.91,7.63,0,14.58,1.83,20.84,5.49,6.27,3.66,11.02,8.57,14.26,14.73l-17.4,10.19c-1.57-3.24-3.95-5.8-7.13-7.68-3.19-1.88-6.77-2.82-10.74-2.82-6.06,0-11.08,2.01-15.05,6.03-3.97,4.02-5.96,9.17-5.96,15.44s1.98,11.26,5.96,15.28c3.97,4.02,8.98,6.03,15.05,6.03,4.08,0,7.7-.91,10.89-2.74,3.19-1.83,5.56-4.36,7.13-7.6l17.55,10.03c-3.45,6.17-8.31,11.1-14.58,14.81-6.27,3.71-13.22,5.56-20.84,5.56Z"/><path class="cls-13" d="M1528.37,594.03h15.05v78.37h-19.75v-44.51l-36.83,44.51h-15.05v-78.37h19.75v44.51l36.83-44.51Z"/><path class="cls-12" d="M1618.49,594.03h15.05v78.37h-19.75v-44.51l-36.83,44.51h-15.05v-78.37h19.75v44.51l36.83-44.51Z"/></svg>