<?xml version="1.0" encoding="utf-8"?>
<!-- Generator: Adobe Illustrator 28.2.0, SVG Export Plug-In . SVG Version: 6.00 Build 0)  -->
<svg version="1.1" id="Слой_1" xmlns="http://www.w3.org/2000/svg" xmlns:xlink="http://www.w3.org/1999/xlink" x="0px" y="0px"
	 viewBox="0 0 1920 1080" style="enable-background:new 0 0 1920 1080;" xml:space="preserve">
<style type="text/css">
	.st0{fill-rule:evenodd;clip-rule:evenodd;fill:#FFFFFF;}
	.st1{fill-rule:evenodd;clip-rule:evenodd;fill:url(#SVGID_1_);}
	.st2{fill-rule:evenodd;clip-rule:evenodd;fill:url(#SVGID_00000061445121756110988880000006519967433307338891_);}
	.st3{fill-rule:evenodd;clip-rule:evenodd;fill:url(#SVGID_00000010312225253831347450000004330485038751495083_);}
	.st4{fill-rule:evenodd;clip-rule:evenodd;fill:url(#SVGID_00000016048460620622139250000012570691258048767670_);}
	.st5{fill-rule:evenodd;clip-rule:evenodd;fill:url(#SVGID_00000002366646245747731260000007482805998327009428_);}
	.st6{fill-rule:evenodd;clip-rule:evenodd;fill:url(#SVGID_00000110447331974989071660000011936620821357116333_);}
	.st7{fill-rule:evenodd;clip-rule:evenodd;fill:url(#SVGID_00000132070544713864031530000017130365768190608303_);}
	.st8{fill-rule:evenodd;clip-rule:evenodd;fill:url(#SVGID_00000052796421651986911880000005797431170053109417_);}
	.st9{fill-rule:evenodd;clip-rule:evenodd;fill:url(#SVGID_00000139293189985455829800000017701866033638252937_);}
	.st10{fill:#FFFFFF;}
</style>
<g>
	<g>
		<path class="st0" d="M282.17,385.75l-14.18,56.72h209.69l14.65-56.72H282.17z M728.03,385.75l-14.65,56.72h50.17l14.18-56.72
			H728.03z M564.87,385.75l-14.64,56.72h108.98l14.65-56.72H564.87z M235.53,609.61l-14.18,56.72h198.54l14.65-56.72H235.53z
			 M507.08,609.61l-14.64,56.72h54.39l14.65-56.72H507.08z M615.64,609.61l-14.65,56.72H716.9l14.18-56.72H615.64z M331.07,499.95
			l-14.18,56.72H448.2l14.64-56.72H331.07z M535.39,499.95l-14.64,56.72h110.18l14.18-56.72H535.39z"/>
		<polygon class="st0" points="838.98,385.75 771.61,666.08 758.82,666.08 826.19,385.75 		"/>
		<linearGradient id="SVGID_1_" gradientUnits="userSpaceOnUse" x1="221.619" y1="414.1152" x2="708.7589" y2="414.1152">
			<stop  offset="0.4003" style="stop-color:#2250A4"/>
			<stop  offset="1" style="stop-color:#D0349F"/>
		</linearGradient>
		<polygon class="st1" points="492.33,385.75 282.17,385.75 267.99,442.48 477.68,442.48 		"/>
		
			<linearGradient id="SVGID_00000064340998838907138910000010679483593375603371_" gradientUnits="userSpaceOnUse" x1="221.619" y1="414.1152" x2="708.7589" y2="414.1152">
			<stop  offset="0.4003" style="stop-color:#2250A4"/>
			<stop  offset="1" style="stop-color:#D0349F"/>
		</linearGradient>
		
			<polygon style="fill-rule:evenodd;clip-rule:evenodd;fill:url(#SVGID_00000064340998838907138910000010679483593375603371_);" points="
			673.87,385.75 659.22,442.48 550.24,442.48 564.87,385.75 		"/>
		
			<linearGradient id="SVGID_00000112621342928921895010000003813708986249060773_" gradientUnits="userSpaceOnUse" x1="221.619" y1="414.1152" x2="708.7589" y2="414.1152">
			<stop  offset="0.4003" style="stop-color:#2250A4"/>
			<stop  offset="1" style="stop-color:#D0349F"/>
		</linearGradient>
		
			<polygon style="fill-rule:evenodd;clip-rule:evenodd;fill:url(#SVGID_00000112621342928921895010000003813708986249060773_);" points="
			777.72,385.75 763.54,442.48 713.37,442.48 728.03,385.75 		"/>
		
			<linearGradient id="SVGID_00000003066950735521930220000001252351332647650726_" gradientUnits="userSpaceOnUse" x1="221.619" y1="528.3137" x2="708.7589" y2="528.3137">
			<stop  offset="0.4003" style="stop-color:#2250A4"/>
			<stop  offset="1" style="stop-color:#D0349F"/>
		</linearGradient>
		
			<polygon style="fill-rule:evenodd;clip-rule:evenodd;fill:url(#SVGID_00000003066950735521930220000001252351332647650726_);" points="
			462.84,499.95 448.2,556.67 316.89,556.67 331.07,499.95 		"/>
		
			<linearGradient id="SVGID_00000053513113903626253650000017323962696063846030_" gradientUnits="userSpaceOnUse" x1="221.619" y1="528.3137" x2="708.7589" y2="528.3137">
			<stop  offset="0.4003" style="stop-color:#2250A4"/>
			<stop  offset="1" style="stop-color:#D0349F"/>
		</linearGradient>
		
			<polygon style="fill-rule:evenodd;clip-rule:evenodd;fill:url(#SVGID_00000053513113903626253650000017323962696063846030_);" points="
			645.12,499.95 630.94,556.67 520.76,556.67 535.39,499.95 		"/>
		
			<linearGradient id="SVGID_00000088848926406298510030000011529062999434358706_" gradientUnits="userSpaceOnUse" x1="221.619" y1="637.9746" x2="708.7589" y2="637.9746">
			<stop  offset="0.4003" style="stop-color:#2250A4"/>
			<stop  offset="1" style="stop-color:#D0349F"/>
		</linearGradient>
		
			<polygon style="fill-rule:evenodd;clip-rule:evenodd;fill:url(#SVGID_00000088848926406298510030000011529062999434358706_);" points="
			434.54,609.61 419.89,666.34 221.35,666.34 235.53,609.61 		"/>
		
			<linearGradient id="SVGID_00000037654807065573390760000012072955075741801860_" gradientUnits="userSpaceOnUse" x1="221.619" y1="637.9746" x2="708.7589" y2="637.9746">
			<stop  offset="0.4003" style="stop-color:#2250A4"/>
			<stop  offset="1" style="stop-color:#D0349F"/>
		</linearGradient>
		
			<polygon style="fill-rule:evenodd;clip-rule:evenodd;fill:url(#SVGID_00000037654807065573390760000012072955075741801860_);" points="
			507.08,609.61 561.49,609.61 546.83,666.34 492.44,666.34 		"/>
		
			<linearGradient id="SVGID_00000081623658638208780740000011474056365502506390_" gradientUnits="userSpaceOnUse" x1="221.619" y1="637.9746" x2="708.7589" y2="637.9746">
			<stop  offset="0.4003" style="stop-color:#2250A4"/>
			<stop  offset="1" style="stop-color:#D0349F"/>
		</linearGradient>
		
			<polygon style="fill-rule:evenodd;clip-rule:evenodd;fill:url(#SVGID_00000081623658638208780740000011474056365502506390_);" points="
			731.08,609.61 716.9,666.34 600.99,666.34 615.64,609.61 		"/>
		<g id="g76_00000125580659922210718460000011916276990802935985_">
			
				<linearGradient id="SVGID_00000121972201373559005600000014755758852996878729_" gradientUnits="userSpaceOnUse" x1="677.9381" y1="526.1218" x2="839.2186" y2="525.8488">
				<stop  offset="0" style="stop-color:#D0349F"/>
				<stop  offset="0.38" style="stop-color:#2250A4"/>
				<stop  offset="0.5" style="stop-color:#2250A4"/>
				<stop  offset="0.62" style="stop-color:#2250A4"/>
				<stop  offset="1" style="stop-color:#D0349F"/>
			</linearGradient>
			
				<polygon style="fill-rule:evenodd;clip-rule:evenodd;fill:url(#SVGID_00000121972201373559005600000014755758852996878729_);" points="
				838.98,385.75 771.61,666.08 758.82,666.08 826.19,385.75 			"/>
		</g>
	</g>
	<g>
		<path class="st10" d="M905.06,450.32l2.58-18.09h27.99v-1.7c0-7.78-1.82-14.08-5.47-18.91c-3.64-4.83-8.25-7.24-13.81-7.24
			c-4.73,0-8.81,1.53-12.26,4.58c-3.45,3.05-5.81,7.29-7.09,12.7l-17.65-4.58c1.87-9.55,6.31-17.23,13.33-23.04
			s15.03-8.71,24.04-8.71c11.47,0,20.51,4.14,27.11,12.41c6.6,8.27,9.9,19.87,9.9,34.79c0,18.76-4.48,34.22-13.44,46.38
			c-8.96,12.16-20.56,18.24-34.79,18.24c-18.17,0-29-10.96-32.5-32.87l17.21-7.09c0.89,8.57,3.04,14.27,6.46,17.1
			c3.42,2.83,7.03,4.25,10.82,4.25c5.42,0,10.43-2.41,15.03-7.22c4.6-4.81,8.16-11.81,10.67-20.99H905.06z"/>
		<path class="st10" d="M1000.98,495.45h-18.21l15.53-90.18h-26.68l3.1-18.09h70.53l-3.1,18.09h-25.64L1000.98,495.45z"/>
		<path class="st10" d="M1096.88,471.52h-35.16l-10.78,23.93h-18.76l50.3-108.27h20.2l14.39,108.27h-17.31L1096.88,471.52z
			 M1094.56,453.5l-5.1-43.57l-19.62,43.57H1094.56z"/>
		<path class="st10" d="M1169.22,405.27l-9.94,57.39c-2.17,12.16-5.1,20.91-8.79,26.26c-3.69,5.34-9.08,8.01-16.17,8.01
			c-3.94,0-7.98-0.49-12.11-1.48l3.32-18.61c2.76,0.69,4.63,1.03,5.61,1.03c2.26,0,4.2-1.01,5.8-3.03c1.6-2.02,3.09-6.94,4.47-14.77
			l12.7-72.9h61.03l-18.74,108.27h-18.22l15.73-90.18H1169.22z"/>
		<path class="st10" d="M1220.03,452.94c0-9.35,1.58-18.97,4.73-28.86c3.99-12.69,9.9-22.33,17.73-28.9
			c7.83-6.57,16.89-9.85,27.18-9.85c10.68,0,19.49,4.06,26.4,12.18c6.92,8.12,10.38,19.19,10.38,33.21c0,12.7-2.47,24.41-7.42,35.13
			c-4.95,10.73-11.09,18.65-18.43,23.77c-7.34,5.12-15.41,7.67-24.22,7.67c-10.54,0-18.93-3.69-25.18-11.07
			C1223.74,477.51,1220.03,466.42,1220.03,452.94z M1238.12,452.49c0,7.97,1.96,14.33,5.87,19.07c3.91,4.75,8.68,7.12,14.29,7.12
			c4.53,0,9.01-1.77,13.44-5.31c4.43-3.54,8.28-9.36,11.56-17.45c3.27-8.09,4.91-16.32,4.91-24.68c0-8.76-2.02-15.64-6.06-20.66
			c-3.55-4.43-8.2-6.64-13.96-6.64c-4.63,0-9.21,1.8-13.74,5.39c-4.53,3.59-8.38,9.36-11.56,17.3S1238.12,443.19,1238.12,452.49z"/>
		<path class="st10" d="M1372.34,447.07h-34.12l-8.32,48.38h-18.21l18.54-108.27h18.28l-7.19,41.8h34.11l7.16-41.8h18.21
			l-18.54,108.27h-18.21L1372.34,447.07z"/>
		<path class="st10" d="M1462.3,447.07h-34.12l-8.32,48.38h-18.21l18.54-108.27h18.28l-7.19,41.8h34.11l7.16-41.8h18.21
			l-18.54,108.27h-18.21L1462.3,447.07z"/>
		<path class="st10" d="M1488.67,495.45l19.05-108.27h18.15l-7.11,40.99h14.39c13.28,0,22.45,2.49,27.49,7.46
			c5.04,4.97,7.57,12.8,7.57,23.49c0,11.28-3.18,20.15-9.53,26.62c-6.35,6.47-15.21,9.71-26.59,9.71H1488.67z M1515.62,446.26
			l-5.46,31.46h18.13c5.82,0,10.06-0.52,12.73-1.55c2.66-1.03,4.85-2.97,6.55-5.8c1.7-2.83,2.55-6.07,2.55-9.71
			c0-4.53-1.26-8.06-3.78-10.6c-2.52-2.54-7.94-3.8-16.25-3.8H1515.62z M1577.15,495.45l19.26-108.27h18.23l-19.26,108.27H1577.15z"
			/>
		<path class="st10" d="M1614.31,495.45l18.54-108.27h65.81l-3.1,18.09h-47.52l-4.23,24.59h45.99l-3.1,18.09h-46.01l-5.07,29.39
			h51.07l-3.03,18.09H1614.31z"/>
	</g>
	<g>
		<path class="st10" d="M844.77,664.76l18.91-108.27h18.21l-8.02,45.94c4.06-0.1,7.08-1.38,9.06-3.84
			c1.98-2.46,5.18-8.27,9.58-17.43c4.41-9.16,7.77-15.08,10.08-17.76c2.31-2.68,4.99-4.51,8.01-5.47c3.03-0.96,6.68-1.44,10.97-1.44
			h4.73l-3.99,16.47h-2.88c-2.66,0-4.76,0.83-6.31,2.48c-1.55,1.65-3.88,6.22-6.99,13.7c-4.68,11.57-10.27,18.37-16.77,20.38
			c2.41,0.94,4.57,2.65,6.46,5.13c1.89,2.49,3.83,7.84,5.8,16.06l7.98,34.05h-18.8l-7.34-33.6c-1.17-5.42-2.61-9-4.31-10.75
			c-1.7-1.75-4.36-2.65-7.96-2.7l-8.21,47.05H844.77z"/>
		<path class="st10" d="M929.86,622.25c0-9.35,1.58-18.97,4.73-28.86c3.99-12.69,9.9-22.33,17.73-28.9
			c7.83-6.57,16.89-9.85,27.18-9.85c10.68,0,19.49,4.06,26.4,12.18c6.92,8.12,10.38,19.19,10.38,33.21c0,12.7-2.47,24.41-7.42,35.13
			c-4.95,10.73-11.09,18.65-18.43,23.77c-7.34,5.12-15.41,7.67-24.22,7.67c-10.54,0-18.93-3.69-25.18-11.07
			C933.58,646.83,929.86,635.73,929.86,622.25z M947.96,621.8c0,7.97,1.96,14.33,5.87,19.07c3.91,4.75,8.68,7.12,14.29,7.12
			c4.53,0,9.01-1.77,13.44-5.31s8.28-9.36,11.56-17.45c3.27-8.09,4.91-16.32,4.91-24.68c0-8.76-2.02-15.64-6.06-20.66
			c-3.55-4.43-8.2-6.64-13.96-6.64c-4.63,0-9.21,1.8-13.74,5.39c-4.53,3.59-8.38,9.36-11.56,17.3
			C949.55,603.89,947.96,612.5,947.96,621.8z"/>
		<path class="st10" d="M1082.18,616.38h-34.12l-8.32,48.38h-18.21l18.54-108.27h18.28l-7.19,41.8h34.11l7.16-41.8h18.21
			l-18.54,108.27h-18.21L1082.18,616.38z"/>
		<path class="st10" d="M1107.8,664.76l18.91-108.27h18.1l-15.75,90.18h34.36l15.88-90.18h18.07l-15.73,90.18h7.74l-8.39,48.01
			h-14.85l5.32-29.91H1107.8z"/>
		<path class="st10" d="M1202.28,664.76l18.54-108.27h65.81l-3.1,18.09H1236l-4.23,24.59h45.99l-3.1,18.09h-46.01l-5.07,29.39h51.07
			l-3.03,18.09H1202.28z"/>
		<path class="st10" d="M1349.48,625.76l18.39,3.32c-3.69,12.53-9.15,21.92-16.36,28.16c-7.21,6.24-15.57,9.36-25.07,9.36
			c-10.64,0-19.07-3.89-25.3-11.66c-6.23-7.77-9.34-19.43-9.34-34.98c0-13.33,2.26-25.08,6.79-35.24
			c4.53-10.16,10.3-17.71,17.32-22.66c7.02-4.95,14.61-7.42,22.78-7.42c9.21,0,16.88,3.03,23.01,9.08s9.74,14.72,10.82,26
			l-17.5,2.07c-1.03-6.55-2.95-11.18-5.75-13.88s-6.44-4.06-10.91-4.06c-4.57,0-8.97,1.65-13.2,4.95c-4.23,3.3-7.83,8.83-10.8,16.58
			s-4.46,16.29-4.46,25.59c0,8.71,1.72,15.4,5.16,20.05c3.44,4.65,7.62,6.98,12.53,6.98c4.67,0,8.99-1.83,12.97-5.5
			C1344.54,638.82,1347.52,633.25,1349.48,625.76z"/>
		<path class="st10" d="M1439.45,625.76l18.39,3.32c-3.69,12.53-9.15,21.92-16.36,28.16s-15.57,9.36-25.07,9.36
			c-10.64,0-19.07-3.89-25.3-11.66s-9.34-19.43-9.34-34.98c0-13.33,2.26-25.08,6.79-35.24c4.53-10.16,10.3-17.71,17.32-22.66
			c7.02-4.95,14.61-7.42,22.78-7.42c9.21,0,16.88,3.03,23.01,9.08s9.74,14.72,10.82,26l-17.5,2.07c-1.03-6.55-2.95-11.18-5.75-13.88
			c-2.8-2.71-6.44-4.06-10.91-4.06c-4.57,0-8.97,1.65-13.2,4.95c-4.23,3.3-7.83,8.83-10.8,16.58c-2.97,7.75-4.46,16.29-4.46,25.59
			c0,8.71,1.72,15.4,5.16,20.05c3.44,4.65,7.62,6.98,12.53,6.98c4.67,0,8.99-1.83,12.97-5.5
			C1434.51,638.82,1437.48,633.25,1439.45,625.76z"/>
		<path class="st10" d="M1462.13,664.76l19.05-108.27h16.91l-11.66,67.13l48.07-67.13h17.24l-18.88,108.27h-17.33l12.04-67.95
			l-48.38,67.95H1462.13z"/>
		<path class="st10" d="M1551.8,664.76l19.05-108.27h16.91l-11.66,67.13l48.07-67.13h17.24l-18.88,108.27h-17.33l12.04-67.95
			l-48.38,67.95H1551.8z"/>
	</g>
</g>
</svg>
